<?xml version="1.0" encoding="UTF-8"?>
<svg id="Layer_1" data-name="Layer 1" xmlns="http://www.w3.org/2000/svg" viewBox="0 0 96.44 96.44">
  <defs>
    <style>
      .cls-1 {
        fill: #fefefe;
      }
      .cls-1, .cls-2 {
        fill-rule: evenodd;
      }
      .cls-2 {
        fill: #be1319;
      }
    </style>
  </defs>
  <path class="cls-2" d="M48.22,0c26.63,0,48.22,21.59,48.22,48.22s-21.59,48.22-48.22,48.22S0,74.85,0,48.22,21.59,0,48.22,0h0ZM73.6,34.11c-2.01-12.07-22.39-20.62-45.37-19.03-3.88.27-7.59.81-11.08,1.58,22.96-1.57,43.31,6.97,45.31,19.03,1.67,10.03-9.86,19.41-27,23.21.02,0,.04,0,.05,0,22.98-1.59,40.08-12.72,38.07-24.79h0ZM22.84,63.75c2.01,12.07,22.39,20.62,45.37,19.03,3.88-.27,7.59-.81,11.08-1.58-22.96,1.57-43.31-6.97-45.31-19.03-1.67-10.03,9.86-19.41,27-23.21-.02,0-.03,0-.05,0-22.98,1.59-40.08,12.72-38.07,24.79Z"/>
  <path class="cls-1" d="M73.6,34.11c2.01,12.07-15.1,23.21-38.07,24.79-.02,0-.03,0-.05,0,17.13-3.8,28.67-13.18,27-23.21-2.01-12.06-22.36-20.6-45.31-19.03,3.48-.77,7.2-1.31,11.08-1.58,22.98-1.59,43.36,6.96,45.37,19.03h0ZM22.84,63.75c2.01,12.07,22.39,20.62,45.37,19.03,3.88-.27,7.59-.81,11.08-1.58-22.96,1.57-43.31-6.97-45.31-19.03-1.67-10.03,9.86-19.41,27-23.21-.02,0-.03,0-.05,0-22.98,1.59-40.08,12.72-38.07,24.79Z"/>
</svg>
